<?xml version="1.0" encoding="utf-8"?>
<!-- Generator: Adobe Illustrator 16.0.0, SVG Export Plug-In . SVG Version: 6.00 Build 0)  -->
<!DOCTYPE svg PUBLIC "-//W3C//DTD SVG 1.1//EN" "http://www.w3.org/Graphics/SVG/1.1/DTD/svg11.dtd">
<svg version="1.1" id="Layer_1" xmlns="http://www.w3.org/2000/svg" xmlns:xlink="http://www.w3.org/1999/xlink" x="0px" y="0px"
	 width="20px" height="20px" viewBox="0 0 80 80" xml:space="preserve">
	<g>
		<path d="M24.754,13.711l9.523,5.339l-5.338-9.524l5.338-9.523l-9.523,5.339L15.23,0.003l5.339,9.523L15.23,19.05L24.754,13.711z"
			/>
		<path d="M70.477,51.044l-9.523-5.319l5.339,9.523l-5.339,9.523l9.523-5.344L80,64.771l-5.339-9.523L80,45.725L70.477,51.044z"/>
		<path d="M80,0.002l-9.523,5.339l-9.523-5.339l5.339,9.523l-5.339,9.524l9.523-5.339L80,19.05l-5.339-9.524L80,0.002z"/>
		<path d="M51.038,20.185c-1.524-1.507-3.795-1.507-5.32,0L1.13,64.771c-1.507,1.524-1.507,3.789,0,5.319l8.762,8.763
			c1.525,1.524,3.813,1.524,5.338,0l44.569-44.569c1.525-1.525,1.525-3.813,0-5.339L51.038,20.185z M46.854,41.148l-8-8l9.134-9.151
			l8.017,7.998L46.854,41.148z"/>
	</g>
</svg>
