<?xml version="1.0" encoding="utf-8"?>
<!DOCTYPE svg PUBLIC "-//W3C//DTD SVG 1.1//EN" "http://www.w3.org/Graphics/SVG/1.1/DTD/svg11.dtd">
<svg version="1.1" id="Capa_1" xmlns="http://www.w3.org/2000/svg" xmlns:xlink="http://www.w3.org/1999/xlink" x="0px" y="0px"
	 width="20px" height="20px" viewBox="0 0 500 500" xml:space="preserve">
<g>
	<path d="M48.311,254.87c1.362,4.451,4.628,7.79,8.707,9.736c4.084,1.946,8.711,1.946,12.796,0.277l42.188-17.523v181.361
		c0,9.182,7.346,16.689,16.33,16.689h242.249c8.979,0,16.33-7.509,16.33-16.689V246.248l43.274,15.856
		c8.438,3.06,17.695-1.394,20.962-10.017l37.832-107.092c2.996-8.346-0.814-17.523-8.707-20.862l-151.61-68.15
		c-7.625-3.338-16.603-0.556-20.688,6.955c-0.268,0.277-23.953,40.612-57.974,40.612h-1.089c-34.022,0-56.616-40.056-56.889-40.334
		c-4.081-7.509-13.063-10.57-20.957-7.232l-151.339,68.15c-7.891,3.616-11.704,12.517-8.705,20.862L48.311,254.87z M171.881,91.867
		c12.522,16.969,38.923,44.783,77.03,44.783H250c37.832,0,65.051-27.815,77.847-44.783l125.206,56.188l-27.22,77.052l-49.812-18.08
		c-4.899-1.948-10.613-1.114-14.971,1.946c-4.356,3.06-6.805,8.345-6.805,13.631v189.429H144.663V222.605
		c0-5.564-2.722-10.849-7.074-13.908c-4.631-3.06-10.343-3.616-15.242-1.669l-48.723,20.027l-26.947-78.72L171.881,91.867z"/>
</g>
</svg>
