<?xml version="1.0" encoding="utf-8"?>
<!-- Generator: Adobe Illustrator 16.0.0, SVG Export Plug-In . SVG Version: 6.00 Build 0)  -->
<!DOCTYPE svg PUBLIC "-//W3C//DTD SVG 1.1//EN" "http://www.w3.org/Graphics/SVG/1.1/DTD/svg11.dtd">
<svg version="1.1" id="Layer_1" xmlns="http://www.w3.org/2000/svg" xmlns:xlink="http://www.w3.org/1999/xlink" x="0px" y="0px"
	 width="20px" height="20px" viewBox="0 0 80 80" xml:space="preserve">
	<g>
		<path d="M75.577,32.885L54.23,54.23c-5.896,5.896-15.45,5.896-21.347,0l-7.115-7.114l7.115-7.115L40,47.116
			c1.965,1.96,5.154,1.965,7.115,0L68.462,25.77c1.96-1.963,1.96-5.154,0-7.118l-7.114-7.115c-1.961-1.961-5.156-1.961-7.117,0
			l-7.621,7.621c-3.533-2.078-7.547-2.971-11.522-2.702L47.115,4.421c5.896-5.895,15.453-5.895,21.347,0l7.115,7.115
			C81.475,17.431,81.475,26.99,75.577,32.885L75.577,32.885z M33.386,60.846l-7.616,7.616c-1.966,1.966-5.155,1.961-7.116,0
			l-7.115-7.114c-1.966-1.962-1.966-5.15,0-7.115l21.347-21.348c1.96-1.96,5.154-1.96,7.115,0l7.115,7.116l7.114-7.116l-7.114-7.115
			c-5.897-5.894-15.449-5.894-21.346,0L4.423,47.116c-5.897,5.896-5.897,15.454,0,21.346l7.115,7.116
			c5.892,5.896,15.449,5.896,21.347,0l12.029-12.03C40.938,63.813,36.933,62.919,33.386,60.846L33.386,60.846z"/>
	</g>
</svg>
