<?xml version="1.0" encoding="utf-8"?>
<!-- Generator: Adobe Illustrator 22.1.0, SVG Export Plug-In . SVG Version: 6.00 Build 0)  -->
<svg version="1.1" id="Layer_1" xmlns="http://www.w3.org/2000/svg" xmlns:xlink="http://www.w3.org/1999/xlink" x="0px" y="0px"
	 viewBox="0 0 120 120" style="enable-background:new 0 0 120 120;" xml:space="preserve">
<style type="text/css">
	.st0{fill:none;stroke:#000000;stroke-width:11;stroke-miterlimit:10;}
</style>
<path d="M101.9,57c-0.8-0.9-18.8-21.7-41.9-21.7c-23.1,0-41.1,20.8-41.9,21.7c-1.5,1.7-1.5,4.3,0,6c0.8,0.9,18.8,21.7,41.9,21.7
	c23.1,0,41.1-20.8,41.9-21.7C103.4,61.3,103.4,58.7,101.9,57z M67,47.8c1.6-0.8,3.7,0.1,4.8,2.2c1.1,2,0.8,4.4-0.8,5.2
	c-1.6,0.8-3.7-0.1-4.8-2.2C65.1,51,65.5,48.7,67,47.8z M60,77.2c-16.1,0-29.7-12.3-34.4-17.2c3.2-3.3,10.4-9.9,19.7-13.9
	c-1.8,2.8-2.9,6-2.9,9.6c0,9.7,7.9,17.5,17.6,17.5s17.6-7.8,17.6-17.5c0-3.5-1.1-6.8-2.9-9.6c9.3,4,16.5,10.7,19.7,13.9
	C89.7,64.8,76.1,77.2,60,77.2z"/>
<path class="st0" d="M101.7,113.5H18.3c-6.6,0-12-5.4-12-12v-83c0-6.6,5.4-12,12-12h83.5c6.6,0,12,5.4,12,12v83
	C113.7,108.1,108.3,113.5,101.7,113.5z"/>
</svg>