<?xml version="1.0" encoding="utf-8"?>
<!-- Generator: Adobe Illustrator 16.0.0, SVG Export Plug-In . SVG Version: 6.00 Build 0)  -->
<!DOCTYPE svg PUBLIC "-//W3C//DTD SVG 1.1//EN" "http://www.w3.org/Graphics/SVG/1.1/DTD/svg11.dtd">
<svg version="1.1" id="Capa_1" xmlns="http://www.w3.org/2000/svg" xmlns:xlink="http://www.w3.org/1999/xlink" x="0px" y="0px"
	 width="20px" height="20px" viewBox="0 0 20 20" xml:space="preserve">
<path d="M13.75,3.75h-7.5C2.798,3.75,0,6.548,0,10c0,3.451,2.798,6.25,6.25,6.25h7.5c3.451,0,6.25-2.799,6.25-6.25
	C20,6.548,17.201,3.75,13.75,3.75z M13.75,15h-7.5c-2.761,0-5-2.238-5-5c0-2.761,2.239-5,5-5h7.5c2.762,0,5,2.239,5,5
	C18.75,12.762,16.512,15,13.75,15z M6.25,6.25C4.179,6.25,2.5,7.929,2.5,10s1.679,3.75,3.75,3.75S10,12.071,10,10
	S8.321,6.25,6.25,6.25z M6.25,12.5c-1.381,0-2.5-1.119-2.5-2.5s1.119-2.5,2.5-2.5s2.5,1.119,2.5,2.5S7.631,12.5,6.25,12.5z"/>
</svg>
