<?xml version="1.0" encoding="utf-8"?>
<!-- Generator: Adobe Illustrator 22.0.0, SVG Export Plug-In . SVG Version: 6.00 Build 0)  -->
<svg version="1.1" id="Capa_1" xmlns="http://www.w3.org/2000/svg" xmlns:xlink="http://www.w3.org/1999/xlink" x="0px" y="0px"
	 viewBox="0 0 511.6 474.5" style="enable-background:new 0 0 511.6 474.5;" xml:space="preserve">
	 <g>
<path d="M498.2,16.8C489.3,6.3,478.5,1,465.9,1H45.7C33.1,1,22.4,6.3,13.4,16.8C4.5,27.3,0,39.9,0,54.7v364.9
	c0,14.8,4.5,27.4,13.4,37.9c8.9,10.5,19.7,15.8,32.3,15.8h420.3c12.6,0,23.3-5.2,32.3-15.8c8.9-10.5,13.4-23.1,13.4-37.9V54.7
	C511.6,39.9,507.2,27.3,498.2,16.8z M475.1,418.2c0,3.3-0.9,6.1-2.7,8.5c-1.8,2.4-3.9,3.6-6.4,3.6H45.7c-2.5,0-4.6-1.2-6.4-3.6
	c-1.8-2.4-2.7-5.2-2.7-8.5V105.5c0-3.3,0.9-6.1,2.7-8.5c1.8-2.4,3.9-3.6,6.4-3.6h420.3c2.5,0,4.6,1.2,6.4,3.6
	c1.8,2.4,2.7,5.2,2.7,8.5V418.2L475.1,418.2z"/>
<path d="M100.5,324.4H82.2c-2.5,0-4.6,1.1-6.4,3.2c-1.8,2.1-2.7,4.6-2.7,7.5v21.5c0,2.9,0.9,5.4,2.7,7.5c1.8,2.1,3.9,3.2,6.4,3.2
	h18.3c2.5,0,4.6-1.1,6.4-3.2c1.8-2.1,2.7-4.6,2.7-7.5v-21.5c0-2.9-0.9-5.4-2.7-7.5C105.1,325.5,103,324.4,100.5,324.4z"/>
<path d="M100.5,238.5H82.2c-2.5,0-4.6,1.1-6.4,3.2c-1.8,2.1-2.7,4.6-2.7,7.5v21.5c0,2.9,0.9,5.4,2.7,7.6c1.8,2.1,3.9,3.2,6.4,3.2
	h18.3c2.5,0,4.6-1.1,6.4-3.2c1.8-2.1,2.7-4.6,2.7-7.6v-21.5c0-2.9-0.9-5.4-2.7-7.5C105.1,239.6,103,238.5,100.5,238.5z"/>
<path d="M100.5,152.7H82.2c-2.5,0-4.6,1.1-6.4,3.2c-1.8,2.1-2.7,4.6-2.7,7.5v21.5c0,2.9,0.9,5.4,2.7,7.5c1.8,2.1,3.9,3.2,6.4,3.2
	h18.3c2.5,0,4.6-1.1,6.4-3.2c1.8-2.1,2.7-4.6,2.7-7.5v-21.5c0-2.9-0.9-5.4-2.7-7.5C105.1,153.8,103,152.7,100.5,152.7z"/>
<path d="M429.4,324.4H155.3c-2.5,0-4.6,1.1-6.4,3.2c-1.8,2.1-2.7,4.6-2.7,7.5v21.5c0,2.9,0.9,5.4,2.7,7.5c1.8,2.1,4,3.2,6.4,3.2
	h274.1c2.5,0,4.6-1.1,6.4-3.2c1.8-2.1,2.7-4.6,2.7-7.5v-21.5c0-2.9-0.9-5.4-2.7-7.5C434,325.5,431.9,324.4,429.4,324.4z"/>
<path d="M429.4,238.5H155.3c-2.5,0-4.6,1.1-6.4,3.2c-1.8,2.1-2.7,4.6-2.7,7.5v21.5c0,2.9,0.9,5.4,2.7,7.6c1.8,2.1,4,3.2,6.4,3.2
	h274.1c2.5,0,4.6-1.1,6.4-3.2c1.8-2.1,2.7-4.6,2.7-7.6v-21.5c0-2.9-0.9-5.4-2.7-7.5C434,239.6,431.9,238.5,429.4,238.5z"/>
<path d="M429.4,152.7H155.3c-2.5,0-4.6,1.1-6.4,3.2c-1.8,2.1-2.7,4.6-2.7,7.5v21.5c0,2.9,0.9,5.4,2.7,7.5c1.8,2.1,4,3.2,6.4,3.2
	h274.1c2.5,0,4.6-1.1,6.4-3.2c1.8-2.1,2.7-4.6,2.7-7.5v-21.5c0-2.9-0.9-5.4-2.7-7.5C434,153.8,431.9,152.7,429.4,152.7z"/>
</g>
</svg>
