<?xml version="1.0" encoding="utf-8"?>
<!-- Generator: Adobe Illustrator 16.0.0, SVG Export Plug-In . SVG Version: 6.00 Build 0)  -->
<!DOCTYPE svg PUBLIC "-//W3C//DTD SVG 1.1//EN" "http://www.w3.org/Graphics/SVG/1.1/DTD/svg11.dtd">
<svg version="1.1" id="Layer_1" xmlns="http://www.w3.org/2000/svg" xmlns:xlink="http://www.w3.org/1999/xlink" x="0px" y="0px"
	 width="20px" height="20px" viewBox="0 0 80 80" xml:space="preserve">
<g>
	<path d="M10.54,4.834H3.522C1.406,4.834,0,6.24,0,8.354v7.022c0,2.113,1.406,3.521,3.522,3.521h7.018
		c2.116,0,3.522-1.407,3.522-3.521V8.354C14.063,6.24,12.656,4.834,10.54,4.834L10.54,4.834z"/>
	<path d="M10.54,32.958H3.522C1.406,32.958,0,34.368,0,36.481v7.037c0,2.115,1.406,3.521,3.522,3.521h7.018
		c2.116,0,3.522-1.406,3.522-3.521v-7.037C14.063,34.368,12.656,32.958,10.54,32.958L10.54,32.958z"/>
	<path d="M10.54,61.104H3.522C1.406,61.104,0,62.51,0,64.626v7.017c0,2.116,1.406,3.523,3.522,3.523h7.018
		c2.116,0,3.522-1.407,3.522-3.523v-7.017C14.063,62.51,12.656,61.104,10.54,61.104L10.54,61.104z"/>
	<path d="M76.479,4.834H27.25c-2.116,0-3.522,1.406-3.522,3.52v7.022c0,2.113,1.406,3.521,3.522,3.521h49.229
		c2.115,0,3.521-1.407,3.521-3.521V8.354C80,6.24,78.594,4.834,76.479,4.834L76.479,4.834z"/>
	<path d="M76.479,32.958H27.25c-2.116,0-3.522,1.41-3.522,3.523v7.037c0,2.115,1.406,3.521,3.522,3.521h49.229
		c2.115,0,3.521-1.406,3.521-3.521v-7.037C80,34.368,78.594,32.958,76.479,32.958L76.479,32.958z"/>
	<path d="M76.479,61.104H27.25c-2.116,0-3.522,1.406-3.522,3.522v7.017c0,2.116,1.406,3.523,3.522,3.523h49.229
		c2.115,0,3.521-1.407,3.521-3.523v-7.017C80,62.51,78.594,61.104,76.479,61.104L76.479,61.104z"/>
</g>
</svg>
