<?xml version="1.0" encoding="utf-8"?>
<!-- Generator: Adobe Illustrator 16.0.0, SVG Export Plug-In . SVG Version: 6.00 Build 0)  -->
<!DOCTYPE svg PUBLIC "-//W3C//DTD SVG 1.1//EN" "http://www.w3.org/Graphics/SVG/1.1/DTD/svg11.dtd">
<svg version="1.1" id="Layer_1" xmlns="http://www.w3.org/2000/svg" xmlns:xlink="http://www.w3.org/1999/xlink" x="0px" y="0px"
	 width="20px" height="20px" viewBox="0 0 80 80" xml:space="preserve">
<g>
	<path d="M51.952,26.086H28.039c-1.078,0-1.953,0.875-1.953,1.953v1.309c0,1.078,0.875,1.952,1.953,1.952h23.913
		c1.087,0,1.962-0.874,1.962-1.952v-1.309C53.914,26.961,53.039,26.086,51.952,26.086L51.952,26.086z M52.173,38.264H27.827
		c-0.96,0-1.741,0.772-1.741,1.732v1.74c0,0.959,0.781,1.74,1.741,1.74h24.346c0.96,0,1.741-0.781,1.741-1.74v-1.74
		C53.914,39.036,53.133,38.264,52.173,38.264L52.173,38.264z M39.996,0C17.909,0,0,17.909,0,39.996C0,62.091,17.909,80,39.996,80
		C62.089,80,80,62.091,80,39.996C80,17.909,62.089,0,39.996,0L39.996,0z M39.996,73.045c-18.249,0-33.042-14.801-33.042-33.049
		c0-18.249,14.792-33.041,33.042-33.041c18.248,0,33.049,14.792,33.049,33.041C73.045,58.244,58.244,73.045,39.996,73.045
		L39.996,73.045z M52.173,50.432H27.827c-0.96,0-1.741,0.781-1.741,1.741v1.741c0,0.959,0.781,1.74,1.741,1.74h24.346
		c0.96,0,1.741-0.781,1.741-1.74v-1.741C53.914,51.213,53.133,50.432,52.173,50.432L52.173,50.432z"/>
</g>
</svg>
