<?xml version="1.0" encoding="utf-8"?>
<!-- Generator: Adobe Illustrator 16.0.0, SVG Export Plug-In . SVG Version: 6.00 Build 0)  -->
<!DOCTYPE svg PUBLIC "-//W3C//DTD SVG 1.1//EN" "http://www.w3.org/Graphics/SVG/1.1/DTD/svg11.dtd">
<svg version="1.1" id="Layer_1" xmlns="http://www.w3.org/2000/svg" xmlns:xlink="http://www.w3.org/1999/xlink" x="0px" y="0px"
	 width="20px" height="20px" viewBox="0 0 80 80" xml:space="preserve">
<g>
	<path d="M77.113,72.848H2.887C1.289,72.848,0,71.48,0,69.805V10.196c0-1.684,1.289-3.043,2.887-3.043h74.226
		c1.599,0,2.888,1.36,2.888,3.043v59.609C80,71.48,78.711,72.848,77.113,72.848L77.113,72.848z M5.772,66.76h68.455V13.232H5.772
		V66.76z"/>
	<path d="M19.579,39.323c-5.305,0-9.624-4.32-9.624-9.63c0-5.312,4.319-9.63,9.624-9.63c5.312,0,9.63,4.318,9.63,9.63
		C29.209,35.002,24.891,39.323,19.579,39.323L19.579,39.323z M19.579,26.142c-1.95,0-3.545,1.594-3.545,3.551
		s1.595,3.545,3.545,3.545c1.956,0,3.55-1.588,3.55-3.545S21.535,26.142,19.579,26.142L19.579,26.142z"/>
	<path d="M26.174,59.932H12.997c-1.682,0-3.042-1.365-3.042-3.043V43.713c0-1.678,1.36-3.045,3.042-3.045h13.177
		c1.676,0,3.035,1.367,3.035,3.045v13.176C29.209,58.566,27.85,59.932,26.174,59.932L26.174,59.932z M16.034,53.852h7.095v-7.096
		h-7.095V53.852z"/>
		<path d="M66.398,29.542H37.436c-1.676,0-3.035-1.364-3.035-3.042s1.359-3.038,3.035-3.038H66.4c1.676,0,3.035,1.36,3.035,3.038
			S68.075,29.542,66.398,29.542L66.398,29.542z"/>
		<path d="M66.398,42.719H37.436c-1.676,0-3.035-1.359-3.035-3.038c0-1.684,1.359-3.043,3.035-3.043H66.4
			c1.676,0,3.035,1.359,3.035,3.043C69.436,41.359,68.075,42.719,66.398,42.719L66.398,42.719z"/>
		<path d="M66.398,55.895H37.436c-1.676,0-3.035-1.364-3.035-3.045c0-1.676,1.359-3.033,3.035-3.033H66.4
			c1.676,0,3.035,1.357,3.035,3.033C69.436,54.529,68.075,55.895,66.398,55.895L66.398,55.895z"/>
</g>
</svg>
