<?xml version="1.0" encoding="utf-8"?>
<!-- Generator: Adobe Illustrator 16.0.0, SVG Export Plug-In . SVG Version: 6.00 Build 0)  -->
<!DOCTYPE svg PUBLIC "-//W3C//DTD SVG 1.1//EN" "http://www.w3.org/Graphics/SVG/1.1/DTD/svg11.dtd">
<svg version="1.1" id="Layer_1" xmlns="http://www.w3.org/2000/svg" xmlns:xlink="http://www.w3.org/1999/xlink" x="0px" y="0px"
	 width="20px" height="20px" viewBox="568 120.624 40 40" enable-background="new 568 120.624 40 40" xml:space="preserve">
<path d="M574.3,138.824h7v3.1h-7V138.824z M574.3,135.725h7v-3.101h-7V135.725z M574.3,126.523v3.101h7v-3.101H574.3z
	 M574.3,147.924h7v-3.1h-7V147.924z M608,125.324v30.6c0,2.6-2.101,4.7-4.7,4.7h-30.6c-2.601,0-4.7-2.101-4.7-4.7v-30.6
	c0-2.6,2.1-4.7,4.7-4.7h30.6C605.899,120.624,608,122.725,608,125.324z M572.7,157.524h11.7v-33.8h-11.7
	c-0.9,0-1.601,0.699-1.601,1.6v30.6C571.1,156.824,571.8,157.524,572.7,157.524z M604.9,125.324c0-0.9-0.7-1.6-1.601-1.6h-15.8v15.1
	h8.399l-3.6-3.6l2.2-2.201l7.4,7.4l-7.4,7.4l-2.2-2.2l3.6-3.6H587.5v15.5h15.8c0.9,0,1.601-0.7,1.601-1.601V125.324z"/>
</svg>
