<?xml version="1.0" encoding="iso-8859-1"?>
<!-- Generator: Adobe Illustrator 16.0.0, SVG Export Plug-In . SVG Version: 6.00 Build 0)  -->
<!DOCTYPE svg PUBLIC "-//W3C//DTD SVG 1.1//EN" "http://www.w3.org/Graphics/SVG/1.1/DTD/svg11.dtd">
<svg version="1.1" id="Capa_1" xmlns="http://www.w3.org/2000/svg" xmlns:xlink="http://www.w3.org/1999/xlink" x="0px" y="0px"  viewBox="0 0 612 612" xml:space="preserve">
<g id="filming">
	<path d="M439.385,298.154H78.461c-25.955,0-47.077,21.122-47.077,47.077v219.692c0,25.955,21.122,47.077,47.077,47.077h360.923
		c25.955,0,47.077-21.122,47.077-47.077V345.23C486.462,319.275,465.34,298.154,439.385,298.154z M455.077,564.923
		c0,8.646-7.046,15.692-15.692,15.692H78.461c-8.646,0-15.692-7.046-15.692-15.692V345.23c0-8.646,7.046-15.692,15.692-15.692
		h360.923c8.646,0,15.692,7.046,15.692,15.692V564.923z M604.154,315.949c-4.865-2.81-10.828-2.81-15.692,0L510,361.253
		l15.692,27.179l54.923-31.714V553.53l-54.829-31.651l-15.692,27.18l78.368,45.24c2.432,1.396,5.131,2.104,7.846,2.104
		s5.414-0.691,7.847-2.104c4.864-2.809,7.846-7.987,7.846-13.589V329.538C612,323.937,609.019,318.742,604.154,315.949z M408,0
		c-77.865,0-141.231,63.366-141.231,141.231S330.135,282.461,408,282.461s141.23-63.365,141.23-141.23S485.865,0,408,0z
		 M408,251.077c-60.572,0-109.846-49.274-109.846-109.846c0-60.573,49.274-109.846,109.846-109.846
		s109.846,49.273,109.846,109.846C517.846,201.803,468.572,251.077,408,251.077z M109.846,282.461
		c60.572,0,109.846-49.274,109.846-109.846S170.418,62.769,109.846,62.769S0,112.043,0,172.615S49.274,282.461,109.846,282.461z
		 M109.846,94.154c43.264,0,78.461,35.198,78.461,78.461s-35.198,78.462-78.461,78.462s-78.461-35.198-78.461-78.462
		S66.583,94.154,109.846,94.154z M408,109.846c-17.324,0-31.385,14.06-31.385,31.385c0,17.324,14.061,31.384,31.385,31.384
		s31.385-14.06,31.385-31.384C439.385,123.906,425.324,109.846,408,109.846z M109.846,188.308c8.662,0,15.692-7.03,15.692-15.692
		s-7.03-15.692-15.692-15.692s-15.692,7.03-15.692,15.692S101.184,188.308,109.846,188.308z"/>
</g>

</svg>
