<?xml version="1.0" encoding="UTF-8" standalone="no"?>
<!DOCTYPE svg PUBLIC "-//W3C//DTD SVG 1.1//EN" "http://www.w3.org/Graphics/SVG/1.1/DTD/svg11.dtd">
<svg width="100%" height="100%" viewBox="0 0 1060 2113" version="1.1" xmlns="http://www.w3.org/2000/svg" xmlns:xlink="http://www.w3.org/1999/xlink" xml:space="preserve" xmlns:serif="http://www.serif.com/" style="fill-rule:evenodd;clip-rule:evenodd;stroke-linejoin:round;stroke-miterlimit:2;">
    <g id="Layer1" transform="matrix(0.988756,0,0,1,5.9658,0)">
        <g transform="matrix(1.01137,0,0,1.90062,-6.03364,-106.641)">
            <rect x="0" y="286.043" width="4.999" height="80.021" style="fill:rgb(23,23,23);"/>
        </g>
        <g transform="matrix(1.01137,0,0,1.90062,-6.03364,86.4079)">
            <rect x="0" y="286.043" width="4.999" height="80.021" style="fill:rgb(23,23,23);"/>
        </g>
        <g transform="matrix(1.20422,0,0,3.00405,1060,-375.293)">
            <rect x="0" y="286.043" width="4.999" height="80.021" style="fill:rgb(23,23,23);"/>
        </g>
    </g>
    <g transform="matrix(0.945533,0,0,0.976457,57.0206,50.4528)">
        <g id="Layer2">
            <path d="M993.058,76.541C993.058,34.297 957.639,0 914.014,0L84.044,0C40.418,0 4.999,34.297 4.999,76.541L4.999,1981.46C4.999,2023.7 40.418,2058 84.044,2058L914.014,2058C957.639,2058 993.058,2023.7 993.058,1981.46L993.058,76.541Z" style="fill:rgb(17,17,17);"/>
        </g>
    </g>
    <path d="M1054.05,146.867C1054.05,65.809 988.239,0 907.181,0L151.866,0C70.808,0 4.999,65.809 4.999,146.867L4.999,1966.13C4.999,2047.19 70.808,2113 151.866,2113L907.181,2113C988.239,2113 1054.05,2047.19 1054.05,1966.13L1054.05,146.867ZM993.058,147.769C993.058,96.037 951.058,54.036 899.325,54.036L158.738,54.036C107.006,54.036 65.005,96.037 65.005,147.769L65.005,1964.26C65.005,2016 107.006,2058 158.738,2058L899.325,2058C951.058,2058 993.058,2016 993.058,1964.26L993.058,147.769Z" style="fill:rgb(23,23,23);"/>
    <path d="M257.7,54.036C264.656,54.036 270.526,63.275 270.526,71.548C270.526,103.585 292.085,128.808 324.122,128.808L728.608,128.808C758.592,128.808 785.944,106.349 785.944,74.297C785.944,64.564 792.155,54.036 798.695,54.036L257.7,54.036Z" style="fill:rgb(23,23,23);"/>
</svg>
