<?xml version="1.0" encoding="iso-8859-1"?>
<!-- Generator: Adobe Illustrator 19.0.0, SVG Export Plug-In . SVG Version: 6.00 Build 0)  -->
<svg version="1.1" id="Capa_1" xmlns="http://www.w3.org/2000/svg" xmlns:xlink="http://www.w3.org/1999/xlink" x="0px" y="0px"
	 viewBox="0 0 512 512" xml:space="preserve">
<g>
	<path d="M467,31H45C20.187,31,0,51.187,0,76v360c0,24.813,20.187,45,45,45h422c24.813,0,45-20.187,45-45V76
		C512,51.187,491.813,31,467,31z M482,436c0,8.271-6.729,15-15,15H45c-8.271,0-15-6.729-15-15v-45h303.58
		c6.192,17.458,22.865,30,42.42,30c19.555,0,36.228-12.542,42.42-30H482V436z M361,376c0-8.271,6.729-15,15-15s15,6.729,15,15
		s-6.729,15-15,15S361,384.271,361,376z M482,361h-63.58c-6.192-17.458-22.865-30-42.42-30s-36.228,12.542-42.42,30H30V76
		c0-8.271,6.729-15,15-15h422c8.271,0,15,6.729,15,15V361z"/>
	<path d="M353.718,198.137l-150-90C193.734,102.15,181,109.355,181,121v180c0,11.737,12.82,18.801,22.718,12.862l150-90
		C363.419,218.04,363.41,203.954,353.718,198.137z M211,274.507V147.493L316.846,211L211,274.507z"/>
</g>
</svg>
