<svg xmlns="http://www.w3.org/2000/svg" xmlns:xlink="http://www.w3.org/1999/xlink" xmlns:serif="http://www.serif.com/" width="100%" height="100%" viewBox="0 0 29 29" version="1.1" xml:space="preserve" style="fill-rule:evenodd;clip-rule:evenodd;stroke-linecap:round;stroke-linejoin:round;stroke-miterlimit:1.5;">
<path d="M20.327,5.414c3.952,4.439 3.557,11.251 -0.882,15.203c-4.439,3.952 -11.252,3.557 -15.204,-0.882c-3.952,-4.439 -3.556,-11.252 0.883,-15.204c4.439,-3.952 11.251,-3.556 15.203,0.883Zm-1.545,1.375c3.227,3.625 2.904,9.187 -0.721,12.413c-3.624,3.227 -9.186,2.904 -12.413,-0.72c-3.226,-3.624 -2.904,-9.186 0.721,-12.413c3.624,-3.227 9.186,-2.904 12.413,0.72Z"/>
<path d="M18.586,20.054l5.136,5.769" style="fill:none;stroke:#000;stroke-width:2px;"/>
<circle cx="12.293" cy="18.589" r="0.96"/>
<path d="M9.365,9.793c0,0 -0.071,-1.871 1.704,-2.636c1.134,-0.489 2.116,-0.287 3.101,0.38c1.16,0.786 1.423,2.715 0.79,3.732c-0.462,0.741 -1.194,1.208 -1.707,1.721c-0.512,0.512 -0.96,1.544 -0.96,2.64" style="fill:none;stroke:#000;stroke-width:2px;"/>
</svg>