<?xml version="1.0" encoding="utf-8"?>
<!-- Generator: Adobe Illustrator 16.0.0, SVG Export Plug-In . SVG Version: 6.00 Build 0)  -->
<!DOCTYPE svg PUBLIC "-//W3C//DTD SVG 1.1//EN" "http://www.w3.org/Graphics/SVG/1.1/DTD/svg11.dtd">
<svg version="1.1" id="Layer_1" xmlns="http://www.w3.org/2000/svg" xmlns:xlink="http://www.w3.org/1999/xlink" x="0px" y="0px"
	 width="20px" height="20px" viewBox="0 0 80 80" xml:space="preserve">
	<g>
		<path d="M26.665,22.224c-4.914,0-8.884,3.984-8.884,8.888c0,4.913,3.97,8.897,8.884,8.897c4.905,0,8.889-3.984,8.889-8.897
			C35.554,26.208,31.579,22.224,26.665,22.224L26.665,22.224z M75.555,4.443H4.446C1.999,4.443,0,6.442,0,8.893v62.216
			c0,2.453,1.999,4.447,4.446,4.447h71.107c2.463,0,4.446-1.994,4.446-4.447V8.893C80,6.442,78.016,4.443,75.555,4.443L75.555,4.443
			z M71.116,64.447c0,1.227-0.999,2.217-2.226,2.217H32.892L57.79,41.773l13.326,13.313V64.447z M71.116,42.695l-9.688-9.688
			c-0.154-0.218-0.305-0.422-0.5-0.609c-0.867-0.866-2.021-1.297-3.17-1.288c-1.127-0.009-2.275,0.413-3.143,1.277
			c-0.155,0.164-0.288,0.328-0.405,0.5L20.438,66.673h-9.329c-1.227,0-2.226-0.999-2.226-2.226V15.553
			c0-1.224,0.999-2.224,2.226-2.224h57.782c1.227,0,2.226,1,2.226,2.224V42.695z"/>
	</g>
</svg>
