<?xml version="1.0" encoding="utf-8"?>
<!-- Generator: Adobe Illustrator 16.0.0, SVG Export Plug-In . SVG Version: 6.00 Build 0)  -->
<!DOCTYPE svg PUBLIC "-//W3C//DTD SVG 1.1//EN" "http://www.w3.org/Graphics/SVG/1.1/DTD/svg11.dtd">
<svg version="1.1" id="Layer_1" xmlns="http://www.w3.org/2000/svg" xmlns:xlink="http://www.w3.org/1999/xlink" x="0px" y="0px"
	 width="20px" height="20px" viewBox="0 0 80 80" xml:space="preserve">
<g>
	<path d="M74.342,62.7c-9.43-7.355-19.594-12.242-21.693-13.227c-0.235-0.111-0.385-0.334-0.385-0.586V34.935
		c1.864-1.18,3.078-3.177,3.078-5.42V15.029C55.342,7.839,49.193,2,41.626,2h-3.253C30.81,2,24.662,7.839,24.662,15.029v14.458
		c0,2.271,1.211,4.267,3.073,5.418v13.954c0,0.252-0.146,0.475-0.386,0.587c-2.063,0.956-12.234,5.839-21.688,13.225
		c-1.718,1.321-2.691,3.315-2.691,5.417V78h74.059v-9.912C77.029,66.01,76.055,64.021,74.342,62.7L74.342,62.7z"/>
</g>
</svg>
