<?xml version="1.0" encoding="utf-8"?>
<!-- Generator: Adobe Illustrator 16.0.0, SVG Export Plug-In . SVG Version: 6.00 Build 0)  -->
<!DOCTYPE svg PUBLIC "-//W3C//DTD SVG 1.1//EN" "http://www.w3.org/Graphics/SVG/1.1/DTD/svg11.dtd">
<svg version="1.1" id="Layer_1" xmlns="http://www.w3.org/2000/svg" xmlns:xlink="http://www.w3.org/1999/xlink" x="0px" y="0px"
	 width="20px" height="20px" viewBox="0 0 80 80" xml:space="preserve">
<g>
	<path d="M77.75,34.084c3.221,1.475,2.951,2.699-0.598,2.699H6.436C2.904,36.783,0,33.879,0,30.348V4.633
		c0-3.547,2.637-5.227,5.84-3.736L77.75,34.084z"/>
	<path d="M6.436,49.648h47.876L6.436,71.752V49.648 M6.436,43.211C2.904,43.211,0,46.115,0,49.648v25.713
		c0,2.662,1.49,4.287,3.594,4.287c0.691,0,1.461-0.189,2.246-0.551l71.91-33.187c3.221-1.492,2.951-2.701-0.598-2.701L6.436,43.211
		L6.436,43.211z"/>
</g>
</svg>
