<?xml version="1.0" encoding="utf-8"?>
<!-- Generator: Adobe Illustrator 18.1.1, SVG Export Plug-In . SVG Version: 6.00 Build 0)  -->
<svg version="1.1" id="Layer_1" xmlns="http://www.w3.org/2000/svg" xmlns:xlink="http://www.w3.org/1999/xlink" x="0px" y="0px"
	 viewBox="0 0 120 120" enable-background="new 0 0 120 120" xml:space="preserve">
<g>
	<g>
		<path fill="#020202" d="M11.5,112.2c-2.2,0-4-2-4-4.5V12.3c0-2.5,1.8-4.5,4-4.5s4,2,4,4.5v95.3C15.5,110.2,13.7,112.2,11.5,112.2z
			"/>
	</g>
	<g>
		<path fill="#020202" d="M39.3,22H13c-2.5,0-4.5,1.8-4.5,4.1c0,2.3,2,4.1,4.5,4.1h28.4c-0.7-0.6-1.2-1.5-1.4-2.4
			C38.7,26.2,38.5,23.8,39.3,22z"/>
		<path fill="#020202" d="M108.3,22H53.6c2.8,1.7,3,6.1,0.7,8.2h54.1c2.5,0,4.5-1.8,4.5-4.1C112.8,23.8,110.8,22,108.3,22z"/>
	</g>
	<g>
		<path fill="#020202" d="M78.2,56.8H13c-2.5,0-4.5,1.8-4.5,4c0,2.2,2,4,4.5,4h67.7C77.1,63.9,76.3,59.4,78.2,56.8z"/>
		<path fill="#020202" d="M108.3,56.8H93.8c2.5,1.8,2.7,6,0.4,8h14.1c2.5,0,4.5-1.8,4.5-4C112.8,58.6,110.8,56.8,108.3,56.8z"/>
	</g>
	<g>
		<path fill="#020202" d="M34,89.7H13c-2.5,0-4.5,1.8-4.5,4.1s2,4.1,4.5,4.1h21.2C31.6,96,31.5,91.6,34,89.7z"/>
		<path fill="#020202" d="M108.3,89.7H49.8c1.1,2,0.8,4.8-0.9,6.4c-0.2,0.6-0.4,1.2-0.8,1.7h60.2c2.5,0,4.5-1.8,4.5-4.1
			S110.8,89.7,108.3,89.7z"/>
	</g>
	<g>
		<path fill="#020202" d="M46.3,39.3c-7.5,0-13.7-6.1-13.7-13.7c0-7.5,6.1-13.7,13.7-13.7S60,18.1,60,25.7
			C60,33.2,53.9,39.3,46.3,39.3z M46.3,19c-3.7,0-6.7,3-6.7,6.7s3,6.7,6.7,6.7c3.7,0,6.7-3,6.7-6.7S50,19,46.3,19z"/>
	</g>
	<g>
		<path fill="#020202" d="M86.7,74C79.1,74,73,67.9,73,60.3c0-7.5,6.1-13.7,13.7-13.7c7.5,0,13.7,6.1,13.7,13.7
			C100.3,67.9,94.2,74,86.7,74z M86.7,53.6c-3.7,0-6.7,3-6.7,6.7c0,3.7,3,6.7,6.7,6.7c3.7,0,6.7-3,6.7-6.7
			C93.4,56.6,90.4,53.6,86.7,53.6z"/>
	</g>
	<g>
		<path fill="#020202" d="M40,107c-7.5,0-13.7-6.1-13.7-13.7c0-7.5,6.1-13.7,13.7-13.7s13.7,6.1,13.7,13.7
			C53.7,100.9,47.5,107,40,107z M40,86.6c-3.7,0-6.7,3-6.7,6.7c0,3.7,3,6.7,6.7,6.7c3.7,0,6.7-3,6.7-6.7
			C46.7,89.6,43.7,86.6,40,86.6z"/>
	</g>
</g>
</svg>
