<?xml version="1.0" encoding="utf-8"?>
<!-- Generator: Adobe Illustrator 16.0.0, SVG Export Plug-In . SVG Version: 6.00 Build 0)  -->
<!DOCTYPE svg PUBLIC "-//W3C//DTD SVG 1.1//EN" "http://www.w3.org/Graphics/SVG/1.1/DTD/svg11.dtd">
<svg version="1.1" id="Layer_1" xmlns="http://www.w3.org/2000/svg" xmlns:xlink="http://www.w3.org/1999/xlink" x="0px" y="0px"
	 width="20px" height="20px" viewBox="0 0 80 80" xml:space="preserve">
<g>
	<path d="M75.918,68.027H4.082C1.827,68.027,0,69.854,0,72.109c0,2.252,1.827,4.08,4.082,4.08h71.836
		c2.255,0,4.082-1.828,4.082-4.08C80,69.854,78.173,68.027,75.918,68.027L75.918,68.027z"/>
	<path d="M8.299,62.04h12.79c1.428,0,2.586-1.157,2.586-2.584V24.082c0-1.429-1.158-2.586-2.586-2.586H8.299
		c-1.427,0-2.584,1.157-2.584,2.586v35.374C5.714,60.883,6.872,62.04,8.299,62.04L8.299,62.04z"/>
	<path d="M33.606,62.04h12.789c1.429,0,2.586-1.157,2.586-2.584V6.395c0-1.428-1.158-2.585-2.586-2.585H33.606
		c-1.428,0-2.586,1.157-2.586,2.585v53.062C31.02,60.883,32.178,62.04,33.606,62.04L33.606,62.04z"/>
	<path d="M58.912,62.04h12.789c1.427,0,2.584-1.157,2.584-2.584V30.885c0-1.429-1.157-2.586-2.584-2.586H58.912
		c-1.428,0-2.585,1.157-2.585,2.586v28.571C56.327,60.883,57.484,62.04,58.912,62.04L58.912,62.04z"/>
</g>
</svg>
