<?xml version="1.0" encoding="utf-8"?>
<!-- Generator: Adobe Illustrator 16.0.0, SVG Export Plug-In . SVG Version: 6.00 Build 0)  -->
<!DOCTYPE svg PUBLIC "-//W3C//DTD SVG 1.1//EN" "http://www.w3.org/Graphics/SVG/1.1/DTD/svg11.dtd">
<svg version="1.1" id="Layer_1" xmlns="http://www.w3.org/2000/svg" xmlns:xlink="http://www.w3.org/1999/xlink" x="0px" y="0px"
	 width="20px" height="20px" viewBox="0 0 80 80" xml:space="preserve">
<g>
	<path d="M40,0C17.945,0,0,17.945,0,40c0,22.059,17.945,40,40,40c22.059,0,40-17.941,40-40C80,17.945,62.059,0,40,0L40,0z
		 M40,73.369C21.601,73.369,6.631,58.398,6.631,40C6.631,21.601,21.601,6.631,40,6.631c18.398,0,33.369,14.97,33.369,33.369
		C73.369,58.398,58.398,73.369,40,73.369L40,73.369z"/>
	<path d="M40,13.569c-14.573,0-26.431,11.857-26.431,26.431S25.427,66.432,40,66.432S66.432,54.573,66.432,40
		S54.573,13.569,40,13.569L40,13.569z M40,59.8c-10.918,0-19.8-8.882-19.8-19.8S29.082,20.2,40,20.2S59.8,29.082,59.8,40
		S50.918,59.8,40,59.8L40,59.8z"/>
	<path d="M52.339,40c0,6.813-5.524,12.339-12.339,12.339c-6.814,0-12.335-5.526-12.335-12.339c0-6.813,5.522-12.335,12.335-12.335
		C46.813,27.665,52.339,33.187,52.339,40L52.339,40z"/>
</g>
</svg>
