<?xml version="1.0" encoding="utf-8"?>
<!-- Generator: Adobe Illustrator 16.0.0, SVG Export Plug-In . SVG Version: 6.00 Build 0)  -->
<!DOCTYPE svg PUBLIC "-//W3C//DTD SVG 1.1//EN" "http://www.w3.org/Graphics/SVG/1.1/DTD/svg11.dtd">
<svg version="1.1" id="Layer_1" xmlns="http://www.w3.org/2000/svg" xmlns:xlink="http://www.w3.org/1999/xlink" x="0px" y="0px"
	 width="20px" height="20px" viewBox="0 0 50 50" enable-background="new 0 0 50 50" xml:space="preserve">
<g>
	<path fill-rule="evenodd" clip-rule="evenodd" d="M17.649,29.839c0.465-0.107,0.883-0.174,1.283-0.301
		c1.532-0.484,2.434-1.591,2.942-3.062c0.526-1.521,0.672-3.106,0.659-4.695c-0.012-1.447,0.702-1.826,1.886-1.705
		c0.4,0.041,0.804,0.062,1.199,0.133c2.496,0.451,3.771,1.792,4.089,4.334c0.115,0.928,0.16,1.865,0.243,2.868
		c0.654,0,1.319-0.01,1.984,0.002c1.224,0.021,2.46-0.045,3.668,0.107c2.313,0.291,4.078,2.342,4.094,4.683
		c0.024,3.753,0.037,7.506-0.003,11.257c-0.035,3.315-2.713,5.972-6.02,6c-3.466,0.028-6.931,0.009-10.396,0.001
		c-1.999-0.004-3.8-0.618-5.377-1.846c-0.153-0.118-0.239-0.412-0.24-0.625c-0.015-3.178-0.01-6.356-0.01-9.534
		C17.649,34.932,17.649,32.404,17.649,29.839z"/>
	<path fill-rule="evenodd" clip-rule="evenodd" d="M7.855,38.448c0-3.158-0.002-6.316,0.001-9.475
		c0.001-1.145,0.416-1.558,1.556-1.56c1.436-0.003,2.872-0.008,4.307,0.001c1.012,0.005,1.484,0.466,1.485,1.473
		c0.005,6.374,0.005,12.747,0,19.122c0,1.018-0.459,1.456-1.485,1.458c-1.474,0.004-2.947,0.005-4.421,0
		c-1.009-0.003-1.438-0.423-1.44-1.429C7.853,44.841,7.856,41.645,7.855,38.448z"/>
	<path fill-rule="evenodd" clip-rule="evenodd" d="M21.389,14.55c-0.942,0.016-1.489-0.618-1.365-1.443
		c0.159-1.058,0.364-2.109,0.504-3.169c0.029-0.215-0.079-0.518-0.231-0.677c-0.688-0.717-1.411-1.401-2.128-2.09
		c-0.417-0.4-0.653-0.848-0.442-1.435c0.209-0.582,0.677-0.775,1.247-0.85c0.985-0.129,1.97-0.268,2.947-0.444
		c0.2-0.035,0.44-0.216,0.536-0.396c0.467-0.877,0.898-1.771,1.329-2.667c0.254-0.528,0.634-0.862,1.242-0.851
		c0.581,0.011,0.944,0.341,1.188,0.848c0.432,0.895,0.862,1.791,1.329,2.667c0.095,0.179,0.336,0.357,0.535,0.392
		c0.996,0.179,2,0.319,3.003,0.457c0.575,0.079,1.025,0.31,1.211,0.897c0.179,0.564-0.055,1-0.455,1.384
		c-0.702,0.676-1.386,1.374-2.104,2.033c-0.274,0.252-0.34,0.485-0.269,0.847c0.194,0.993,0.335,1.997,0.51,2.995
		c0.091,0.521-0.039,0.954-0.46,1.271c-0.446,0.335-0.927,0.309-1.403,0.058c-0.881-0.462-1.767-0.911-2.632-1.397
		c-0.342-0.192-0.61-0.189-0.951,0.002c-0.85,0.476-1.719,0.916-2.586,1.359C21.726,14.448,21.487,14.513,21.389,14.55z"/>
	<path fill-rule="evenodd" clip-rule="evenodd" d="M11.496,14.554c-0.114-0.042-0.374-0.106-0.606-0.225
		c-0.903-0.459-1.79-0.951-2.701-1.395c-0.184-0.089-0.486-0.092-0.67-0.002c-0.911,0.441-1.805,0.921-2.697,1.4
		c-0.492,0.265-0.979,0.347-1.457,0.005c-0.494-0.354-0.592-0.844-0.478-1.426c0.188-0.956,0.365-1.917,0.486-2.883
		c0.031-0.254-0.083-0.603-0.258-0.79C2.434,8.513,1.71,7.828,0.986,7.144C0.569,6.75,0.392,6.289,0.568,5.747
		c0.179-0.552,0.628-0.779,1.184-0.855C2.737,4.759,3.724,4.628,4.7,4.444C4.933,4.401,5.21,4.2,5.323,3.994
		c0.466-0.855,0.882-1.739,1.306-2.618c0.254-0.527,0.635-0.864,1.244-0.852c0.58,0.012,0.941,0.338,1.185,0.849
		c0.428,0.898,0.865,1.792,1.334,2.668c0.096,0.179,0.334,0.359,0.532,0.394c0.998,0.178,2.002,0.315,3.007,0.452
		c0.553,0.075,0.994,0.292,1.189,0.847c0.205,0.583-0.025,1.037-0.445,1.438c-0.719,0.688-1.445,1.372-2.128,2.094
		c-0.162,0.17-0.26,0.501-0.229,0.737c0.134,1.004,0.347,1.997,0.496,2.999C12.949,13.91,12.453,14.543,11.496,14.554z"/>
	<path fill-rule="evenodd" clip-rule="evenodd" d="M37.158,13.139c0.164-0.951,0.373-2.039,0.525-3.135
		c0.032-0.236-0.065-0.567-0.226-0.737c-0.697-0.735-1.436-1.43-2.166-2.134c-0.404-0.389-0.607-0.835-0.414-1.393
		c0.191-0.556,0.629-0.775,1.183-0.849c0.967-0.127,1.928-0.289,2.895-0.402c0.365-0.042,0.571-0.189,0.724-0.524
		c0.373-0.815,0.798-1.608,1.177-2.421c0.268-0.574,0.614-1.023,1.313-1.017c0.699,0.006,1.034,0.474,1.301,1.04
		c0.383,0.812,0.768,1.624,1.199,2.41c0.113,0.207,0.385,0.413,0.614,0.456c0.975,0.187,1.96,0.324,2.944,0.457
		c0.553,0.075,1.009,0.287,1.198,0.835c0.195,0.565-0.002,1.036-0.434,1.442c-0.71,0.669-1.385,1.375-2.102,2.036
		c-0.277,0.254-0.347,0.506-0.279,0.857c0.183,0.957,0.332,1.921,0.516,2.877c0.106,0.557,0.009,1.034-0.458,1.382
		c-0.468,0.351-0.957,0.299-1.452,0.033c-0.893-0.479-1.781-0.964-2.691-1.405c-0.199-0.096-0.522-0.097-0.722-0.001
		c-0.963,0.465-1.893,0.998-2.854,1.466C38.049,14.849,37.141,14.261,37.158,13.139z"/>
</g>
</svg>
