<?xml version="1.0" encoding="utf-8"?>
<!-- Generator: Adobe Illustrator 16.0.0, SVG Export Plug-In . SVG Version: 6.00 Build 0)  -->
<!DOCTYPE svg PUBLIC "-//W3C//DTD SVG 1.1//EN" "http://www.w3.org/Graphics/SVG/1.1/DTD/svg11.dtd">
<svg version="1.1" id="Layer_1" xmlns="http://www.w3.org/2000/svg" xmlns:xlink="http://www.w3.org/1999/xlink" x="0px" y="0px"
	 width="20px" height="20px" viewBox="0 0 80 80" xml:space="preserve">
<g>
	<path d="M59.577,37.09c-3.716,1.768-6.742,7.139-10.285,3.596c-2.149-2.335-4.703-6.054-7.64-10.256
		c-3.174-4.522-7.218-8.407-11.978-3.965c-5.315,4.998-8.963,18.562-9.28,25.541l50.207,0.017
		C69.453,47.915,64.991,34.511,59.577,37.09L59.577,37.09z"/>
	<path d="M65.518,23.042c0,3.409-2.763,6.173-6.175,6.173c-3.407,0-6.173-2.765-6.173-6.173c0-3.412,2.766-6.177,6.173-6.177
		C62.755,16.866,65.518,19.631,65.518,23.042L65.518,23.042z"/>
	<path d="M78.165,8.952h-65.33C11.822,8.952,11,9.774,11,10.787v9.28H1.835C0.823,20.067,0,20.89,0,21.902v47.311
		c0,1.014,0.823,1.835,1.835,1.835h65.326c1.013,0,1.835-0.821,1.835-1.835v-9.279h9.169c1.012,0,1.835-0.818,1.835-1.832V10.787
		C80,9.774,79.177,8.952,78.165,8.952L78.165,8.952z M64.07,66.121H4.926V24.993H11v28.595c-0.922,3.564-1.489,6.982-1.605,9.53
		l50.207,0.016c-0.22-0.786-0.561-1.909-1.01-3.2h5.479V66.121L64.07,66.121z M75.074,55.007H15.926v-41.13h59.148V55.007z"/>
</g>
</svg>
