<?xml version="1.0" encoding="utf-8"?>
<!-- Generator: Adobe Illustrator 16.0.0, SVG Export Plug-In . SVG Version: 6.00 Build 0)  -->
<!DOCTYPE svg PUBLIC "-//W3C//DTD SVG 1.1//EN" "http://www.w3.org/Graphics/SVG/1.1/DTD/svg11.dtd">
<svg version="1.1" id="Layer_1" xmlns="http://www.w3.org/2000/svg" xmlns:xlink="http://www.w3.org/1999/xlink" x="0px" y="0px"
	 width="20px" height="20px" viewBox="0 0 48 48" enable-background="new 0 0 48 48" xml:space="preserve">
<path fill="none" d="M0,0h48v48H0V0z"/>
<path d="M8,12h36V8H8c-2.21,0-4,1.79-4,4v22H0v6h28v-6H8V12z M46,16H34c-1.1,0-2,0.9-2,2v20c0,1.1,0.9,2,2,2h12c1.1,0,2-0.9,2-2V18
	C48,16.9,47.1,16,46,16z M44,34h-8V20h8V34z"/>
</svg>
