<?xml version="1.0" encoding="utf-8"?>
<!-- Generator: Adobe Illustrator 18.1.1, SVG Export Plug-In . SVG Version: 6.00 Build 0)  -->
<svg version="1.1" id="Layer_1" xmlns="http://www.w3.org/2000/svg" xmlns:xlink="http://www.w3.org/1999/xlink" x="0px" y="0px"
	 viewBox="0 0 120 120" enable-background="new 0 0 120 120" xml:space="preserve">
<g>
	<path fill="none" stroke="#566169" stroke-width="2" stroke-linecap="round" stroke-miterlimit="10" d="M20.7,32.5L11.2,115h99
		l-9.4-82.5H20.7z"/>
	<path fill="none" stroke="#566169" stroke-width="2" stroke-linecap="round" stroke-miterlimit="10" d="M81.9,44.3
		c0-2.9,0-15.9,0-18.9c0-11.7-9.5-21.2-21.2-21.2s-21.2,9.5-21.2,21.2c0,2.9,0,15.9,0,18.9"/>
	<circle fill="#566169" cx="81.9" cy="44.3" r="4.7"/>
	<circle fill="#566169" cx="39.5" cy="44.3" r="4.7"/>
	<g>
		<path fill="#566169" d="M27.5,108.2c1.1,0,2-0.9,2-2V100c0-1.1-0.9-2-2-2s-2,0.9-2,2v6.1C25.5,107.3,26.4,108.2,27.5,108.2z"/>
		<path fill="#566169" d="M27.5,79.6c1.1,0,2-0.9,2-2v-6.1c0-1.1-0.9-2-2-2s-2,0.9-2,2v6.1C25.5,78.7,26.4,79.6,27.5,79.6z"/>
		<path fill="#566169" d="M27.5,93.9c1.1,0,2-0.9,2-2v-6.1c0-1.1-0.9-2-2-2s-2,0.9-2,2v6.1C25.5,93,26.4,93.9,27.5,93.9z"/>
		<path fill="#566169" d="M43.8,108.2c1.1,0,2-0.9,2-2V100c0-1.1-0.9-2-2-2s-2,0.9-2,2v6.1C41.8,107.3,42.7,108.2,43.8,108.2z"/>
		<path fill="#566169" d="M43.8,79.6c1.1,0,2-0.9,2-2v-6.1c0-1.1-0.9-2-2-2s-2,0.9-2,2v6.1C41.8,78.7,42.7,79.6,43.8,79.6z"/>
		<path fill="#566169" d="M43.8,93.9c1.1,0,2-0.9,2-2v-6.1c0-1.1-0.9-2-2-2s-2,0.9-2,2v6.1C41.8,93,42.7,93.9,43.8,93.9z"/>
		<path fill="#566169" d="M60.2,108.2c1.1,0,2-0.9,2-2V100c0-1.1-0.9-2-2-2s-2,0.9-2,2v6.1C58.1,107.3,59,108.2,60.2,108.2z"/>
		<path fill="#566169" d="M60.2,79.6c1.1,0,2-0.9,2-2v-6.1c0-1.1-0.9-2-2-2s-2,0.9-2,2v6.1C58.1,78.7,59,79.6,60.2,79.6z"/>
		<path fill="#566169" d="M60.2,93.9c1.1,0,2-0.9,2-2v-6.1c0-1.1-0.9-2-2-2s-2,0.9-2,2v6.1C58.1,93,59,93.9,60.2,93.9z"/>
		<path fill="#566169" d="M76.5,108.2c1.1,0,2-0.9,2-2V100c0-1.1-0.9-2-2-2s-2,0.9-2,2v6.1C74.5,107.3,75.4,108.2,76.5,108.2z"/>
		<path fill="#566169" d="M76.5,79.6c1.1,0,2-0.9,2-2v-6.1c0-1.1-0.9-2-2-2s-2,0.9-2,2v6.1C74.5,78.7,75.4,79.6,76.5,79.6z"/>
		<path fill="#566169" d="M76.5,93.9c1.1,0,2-0.9,2-2v-6.1c0-1.1-0.9-2-2-2s-2,0.9-2,2v6.1C74.5,93,75.4,93.9,76.5,93.9z"/>
		<path fill="#566169" d="M92.8,108.2c1.1,0,2-0.9,2-2V100c0-1.1-0.9-2-2-2s-2,0.9-2,2v6.1C90.8,107.3,91.7,108.2,92.8,108.2z"/>
		<path fill="#566169" d="M92.8,79.6c1.1,0,2-0.9,2-2v-6.1c0-1.1-0.9-2-2-2s-2,0.9-2,2v6.1C90.8,78.7,91.7,79.6,92.8,79.6z"/>
		<path fill="#566169" d="M92.8,93.9c1.1,0,2-0.9,2-2v-6.1c0-1.1-0.9-2-2-2s-2,0.9-2,2v6.1C90.8,93,91.7,93.9,92.8,93.9z"/>
	</g>
</g>
</svg>
