<?xml version="1.0" encoding="utf-8"?>
<!-- Generator: Adobe Illustrator 16.0.0, SVG Export Plug-In . SVG Version: 6.00 Build 0)  -->
<!DOCTYPE svg PUBLIC "-//W3C//DTD SVG 1.1//EN" "http://www.w3.org/Graphics/SVG/1.1/DTD/svg11.dtd">
<svg version="1.1" id="Layer_1" xmlns="http://www.w3.org/2000/svg" xmlns:xlink="http://www.w3.org/1999/xlink" x="0px" y="0px"
	 width="20px" height="20px" viewBox="0 0 80 80" xml:space="preserve">
	<g>
		<path d="M79.85,37.586c0.219-0.422,0.195-0.929-0.049-1.336c-0.249-0.406-0.693-0.655-1.162-0.655h-8.602v-7.447
			c0-0.766-0.617-1.374-1.369-1.374H11.327c-0.751,0-1.368,0.608-1.368,1.374v7.447H1.373c-0.483,0-0.929,0.249-1.178,0.655
			c-0.244,0.407-0.259,0.914-0.048,1.336l3.556,6.819l-3.556,6.819c-0.211,0.416-0.196,0.924,0.048,1.33
			c0.249,0.412,0.694,0.672,1.178,0.672h16.626c0.766,0,1.373-0.619,1.373-1.375v-7.446h41.252v7.446
			c0,0.756,0.617,1.375,1.372,1.375h16.643c0.482,0,0.913-0.26,1.162-0.672c0.244-0.406,0.268-0.914,0.049-1.33l-3.548-6.819
			L79.85,37.586z M17.803,51.742l-7.844-7.337h7.844V51.742z M62.191,51.742v-7.337h7.846L62.191,51.742z"/>
	</g>
</svg>
