<?xml version="1.0" encoding="utf-8"?>
<!-- Generator: Adobe Illustrator 16.0.0, SVG Export Plug-In . SVG Version: 6.00 Build 0)  -->
<!DOCTYPE svg PUBLIC "-//W3C//DTD SVG 1.1//EN" "http://www.w3.org/Graphics/SVG/1.1/DTD/svg11.dtd">
<svg version="1.1" id="Layer_1" xmlns="http://www.w3.org/2000/svg" xmlns:xlink="http://www.w3.org/1999/xlink" x="0px" y="0px"
	 width="20px" height="20px" viewBox="0 0 80 80" xml:space="preserve">
<g>
	<path d="M70,0H10C5.875,0,2.5,3.375,2.5,7.5v65c0,4.125,3.375,7.5,7.5,7.5h60c4.125,0,7.5-3.375,7.5-7.5v-65
		C77.5,3.375,74.125,0,70,0L70,0z M70.042,72.772H9.958V7.227h60.084V72.772z M22.5,45h35v5h-35V45z M22.5,55h35v5h-35V55z
		 M27.5,22.5c0,4.142,3.357,7.5,7.5,7.5s7.5-3.359,7.5-7.5c0-4.142-3.357-7.5-7.5-7.5S27.5,18.358,27.5,22.5L27.5,22.5z M40,30H30
		c-4.125,0-7.5,2.25-7.5,4.999v5h25v-5C47.5,32.25,44.125,30,40,30L40,30z M40,30"/>
</g>
</svg>
